<svg width="244" height="85" viewBox="0 0 244 85" fill="none" xmlns="http://www.w3.org/2000/svg">
<path d="M61.9875 63.259C59.5851 61.0755 55.9164 61.0755 53.514 63.259L49.129 67.2446C43.9041 71.9937 35.9255 71.9937 30.7006 67.2446L26.3154 63.259C23.913 61.0755 20.2445 61.0755 17.8421 63.259L12.2391 68.3517C12.0686 68.5067 12.0639 68.7736 12.2308 68.9327C19.4265 75.7892 29.1761 80 39.9113 80C50.6483 80 60.3994 75.7879 67.5955 68.9293C67.7624 68.7702 67.7577 68.5034 67.5871 68.3483L61.9875 63.259ZM39.9113 0C19.0462 0 1.90519 15.9065 0.00109522 36.2298C-0.0324879 36.5882 0.389211 36.7967 0.656109 36.5551L2.11716 35.2326C7.34378 30.5018 15.3076 30.5099 20.5245 35.2515L24.9235 39.2499C27.3259 41.4335 30.9946 41.4335 33.397 39.2499L37.7733 35.2721C43.0032 30.5187 50.9912 30.5237 56.2149 35.2839L63.2977 41.7385C63.7874 42.1848 63.8225 42.9438 63.3762 43.4336L61.6922 45.2816L60.008 47.1295C59.5617 47.6193 58.803 47.6546 58.3132 47.2083L51.2304 40.7538C48.8285 38.565 45.1555 38.5627 42.7508 40.7483L38.3745 44.7261C33.1496 49.4751 25.1712 49.475 19.9463 44.7261L15.5472 40.7276C13.1485 38.5474 9.48651 38.5438 7.08326 40.719L0.560128 46.6237C0.458712 46.7155 0.411126 46.853 0.434908 46.9877C1.44651 52.717 3.67984 58.0258 6.85735 62.6367C6.99374 62.8346 7.27315 62.8651 7.45103 62.7034L12.8647 57.7828C18.0895 53.0339 26.068 53.0339 31.2929 57.7828L35.6781 61.7685C38.0805 63.9521 41.7491 63.9521 44.1516 61.7685L48.5365 57.7828C53.7614 53.0339 61.7401 53.0339 66.9649 57.7828L72.3742 62.6995C72.5521 62.8612 72.8315 62.8307 72.9679 62.6328C77.4023 56.1965 79.998 48.4008 79.998 40C79.998 31.3286 77.2324 23.3021 72.5338 16.7497C72.4676 16.6575 72.3651 16.5975 72.2519 16.5888C70.5761 16.4598 68.8589 16.999 67.5293 18.2075L63.153 22.1852C57.9281 26.9342 49.9497 26.9342 44.7248 22.1852L40.3258 18.1868C37.927 16.0065 34.265 16.0029 31.8618 18.1782L24.6803 24.6788C24.189 25.1235 23.4301 25.0856 22.9854 24.5943L19.6297 20.8871C19.1851 20.3958 19.2229 19.6371 19.7142 19.1924L26.8957 12.6918C32.1223 7.9609 40.0861 7.969 45.303 12.7106L49.702 16.709C52.1044 18.8926 55.7731 18.8926 58.1755 16.709L62.5518 12.7313C63.6128 11.767 64.7872 10.9986 66.0291 10.4259C66.2981 10.3019 66.36 9.94033 66.1359 9.74667C59.1063 3.67421 49.9389 2.51227e-06 39.9113 0Z" fill="white"/>
<path d="M90.8686 36V2.58823H102.116C108.186 2.58823 111.81 5.3647 111.81 12.5176V13.0353C111.81 20 108.092 22.9176 102.116 22.9176H96.4216V36H90.8686ZM96.4216 18.4471H101.41C104.469 18.4471 106.022 16.9412 106.022 13.0353V12.5176C106.022 8.5647 104.469 7.10588 101.41 7.10588H96.4216V18.4471ZM121.907 36.2824C115.695 36.2824 112.542 32.9882 112.542 25.4118V22.5882C112.542 15.0118 115.695 11.7176 121.907 11.7176H122.283C128.495 11.7176 131.695 15.0118 131.695 22.5882V25.4118C131.695 32.9882 128.495 36.2824 122.283 36.2824H121.907ZM118.001 25.4118C118.001 30.7294 119.318 32.4235 121.907 32.4235H122.236C124.871 32.4235 126.189 30.7294 126.189 25.4118V22.5882C126.189 17.2706 124.871 15.5765 122.236 15.5765H121.907C119.318 15.5765 118.001 17.2706 118.001 22.5882V25.4118ZM137.427 36L132.11 12H137.192L140.816 31.0118L144.58 12H149.663L153.427 31.0118L157.004 12H161.992L156.722 36H150.557L147.075 18.2118L143.639 36H137.427ZM171.792 36.2824C165.722 36.2824 162.522 32.9882 162.522 25.3647V22.6353C162.522 15.0118 165.722 11.7176 171.698 11.7176H172.075C178.051 11.7176 180.875 14.8235 180.875 22.0706C180.875 22.8235 180.875 24.0941 180.827 25.3647H167.886V25.7412C167.886 30.7765 169.157 32.5176 171.792 32.5176H172.122C174.71 32.5176 175.463 31.0118 175.463 28.9412V28.5176H180.639V28.8941C180.639 33.1294 178.475 36.2824 172.169 36.2824H171.792ZM167.886 21.6H175.651V20.9882C175.651 16.7529 174.333 15.4353 172.027 15.4353H171.698C169.392 15.4353 167.933 16.9412 167.886 21.6ZM183.512 36V12H188.548V15.8588C190.242 13.0824 191.183 11.9529 193.442 11.9529H195.701V17.0824H192.218C190.054 17.0824 188.783 18.4941 188.783 21.5529V36H183.512ZM205.228 36.2824C199.157 36.2824 195.957 32.9882 195.957 25.3647V22.6353C195.957 15.0118 199.157 11.7176 205.134 11.7176H205.51C211.487 11.7176 214.31 14.8235 214.31 22.0706C214.31 22.8235 214.31 24.0941 214.263 25.3647H201.322V25.7412C201.322 30.7765 202.593 32.5176 205.228 32.5176H205.557C208.145 32.5176 208.898 31.0118 208.898 28.9412V28.5176H214.075V28.8941C214.075 33.1294 211.91 36.2824 205.604 36.2824H205.228ZM201.322 21.6H209.087V20.9882C209.087 16.7529 207.769 15.4353 205.463 15.4353H205.134C202.828 15.4353 201.369 16.9412 201.322 21.6ZM223.348 36.2824C218.548 36.2824 216.054 32.9412 216.054 25.3647V22.5882C216.054 15.0588 218.548 11.7176 223.348 11.7176H223.677C226.501 11.7176 227.866 12.6118 229.372 14.7294V2.58823H234.689V36H229.607V32.9882C228.007 35.3412 226.595 36.2824 223.725 36.2824H223.348ZM221.513 25.3647C221.513 30.6824 222.783 32.4235 225.372 32.4235H225.701C228.242 32.4235 229.56 30.6824 229.56 25.3647V22.5882C229.56 17.3176 228.242 15.5765 225.701 15.5765H225.372C222.783 15.5765 221.513 17.3176 221.513 22.5882V25.3647ZM101.41 76.2824C98.5392 76.2824 97.1745 75.3412 95.5275 72.9882V76H90.4922V42.5882H95.7628V54.7294C97.2686 52.6118 98.6804 51.7176 101.457 51.7176H101.833C106.633 51.7176 109.127 55.0588 109.127 62.5882V65.3647C109.127 72.9412 106.633 76.2824 101.786 76.2824H101.41ZM95.5745 65.3647C95.5745 70.6824 96.8922 72.4235 99.3863 72.4235H99.7628C102.351 72.4235 103.622 70.6824 103.622 65.3647V62.5882C103.622 57.3176 102.351 55.5765 99.7628 55.5765H99.3863C96.8922 55.5765 95.5745 57.3176 95.5745 62.5882V65.3647ZM110.991 84.2353V80.1412H113.533C114.85 80.1412 115.462 79.8118 115.791 78.6353L116.45 76.0941L109.297 52H114.803L119.274 69.5529L123.791 52H129.25L120.827 79.9059C119.744 83.2471 118.333 84.2353 115.038 84.2353H110.991ZM145.855 76.3765C138.09 76.3765 135.078 72.6118 135.078 66.4941V65.7412H140.631V66.4941C140.631 69.7882 141.996 71.9059 145.902 71.9059H146.231C149.337 71.9059 150.984 70.1176 150.984 67.3412V67.1059C150.984 64.7059 149.713 63.0118 146.984 62.1176L142.749 60.7529C138.372 59.3412 135.831 56.1882 135.831 51.3412V51.1059C135.831 45.5059 139.596 42.2118 145.855 42.2118H146.231C152.49 42.2118 156.113 45.5059 156.113 51.5294V52.0941H150.608V51.5294C150.608 48.6118 149.243 46.6823 146.278 46.6823H145.855C142.89 46.6823 141.384 48.5176 141.384 51.0118V51.2471C141.384 53.5059 142.608 55.2471 145.384 56.1412L149.713 57.5529C154.231 59.0118 156.584 61.8824 156.584 66.7765V67.0118C156.584 73.0824 152.772 76.3765 146.231 76.3765H145.855ZM167.393 76.2824C161.323 76.2824 158.123 72.9882 158.123 65.3647V62.6353C158.123 55.0118 161.323 51.7176 167.299 51.7176H167.676C173.652 51.7176 176.476 54.8235 176.476 62.0706C176.476 62.8235 176.476 64.0941 176.429 65.3647H163.487V65.7412C163.487 70.7765 164.758 72.5176 167.393 72.5176H167.723C170.311 72.5176 171.064 71.0118 171.064 68.9412V68.5176H176.24V68.8941C176.24 73.1294 174.076 76.2824 167.77 76.2824H167.393ZM163.487 61.6H171.252V60.9882C171.252 56.7529 169.934 55.4353 167.629 55.4353H167.299C164.993 55.4353 163.534 56.9412 163.487 61.6ZM179.113 76V52H184.384V76H179.113ZM179.113 48.4235V43.2471H184.384V48.4235H179.113Z" fill="white"/>
</svg>
