<svg width="304" height="45" viewBox="0 0 304 45" fill="none" xmlns="http://www.w3.org/2000/svg">
<path d="M2.87059 36V2.58823H14.1176C20.1882 2.58823 23.8118 5.3647 23.8118 12.5176V13.0353C23.8118 20 20.0941 22.9176 14.1176 22.9176H8.42353V36H2.87059ZM8.42353 18.4471H13.4118C16.4706 18.4471 18.0235 16.9412 18.0235 13.0353V12.5176C18.0235 8.5647 16.4706 7.10588 13.4118 7.10588H8.42353V18.4471ZM33.9085 36.2824C27.6967 36.2824 24.5438 32.9882 24.5438 25.4118V22.5882C24.5438 15.0118 27.6967 11.7176 33.9085 11.7176H34.2849C40.4967 11.7176 43.6967 15.0118 43.6967 22.5882V25.4118C43.6967 32.9882 40.4967 36.2824 34.2849 36.2824H33.9085ZM30.0026 25.4118C30.0026 30.7294 31.3202 32.4235 33.9085 32.4235H34.2379C36.8732 32.4235 38.1908 30.7294 38.1908 25.4118V22.5882C38.1908 17.2706 36.8732 15.5765 34.2379 15.5765H33.9085C31.3202 15.5765 30.0026 17.2706 30.0026 22.5882V25.4118ZM49.4294 36L44.1118 12H49.1941L52.8177 31.0118L56.5824 12H61.6647L65.4294 31.0118L69.0059 12H73.9941L68.7235 36H62.5588L59.0765 18.2118L55.6412 36H49.4294ZM83.7941 36.2824C77.7235 36.2824 74.5235 32.9882 74.5235 25.3647V22.6353C74.5235 15.0118 77.7235 11.7176 83.7 11.7176H84.0765C90.053 11.7176 92.8765 14.8235 92.8765 22.0706C92.8765 22.8235 92.8765 24.0941 92.8294 25.3647H79.8882V25.7412C79.8882 30.7765 81.1588 32.5176 83.7941 32.5176H84.1235C86.7118 32.5176 87.4647 31.0118 87.4647 28.9412V28.5176H92.6412V28.8941C92.6412 33.1294 90.4765 36.2824 84.1706 36.2824H83.7941ZM79.8882 21.6H87.653V20.9882C87.653 16.7529 86.3353 15.4353 84.0294 15.4353H83.7C81.3941 15.4353 79.9353 16.9412 79.8882 21.6ZM95.5143 36V12H100.55V15.8588C102.244 13.0824 103.185 11.9529 105.444 11.9529H107.703V17.0824H104.22C102.056 17.0824 100.785 18.4941 100.785 21.5529V36H95.5143ZM117.23 36.2824C111.159 36.2824 107.959 32.9882 107.959 25.3647V22.6353C107.959 15.0118 111.159 11.7176 117.136 11.7176H117.512C123.489 11.7176 126.312 14.8235 126.312 22.0706C126.312 22.8235 126.312 24.0941 126.265 25.3647H113.324V25.7412C113.324 30.7765 114.594 32.5176 117.23 32.5176H117.559C120.147 32.5176 120.9 31.0118 120.9 28.9412V28.5176H126.077V28.8941C126.077 33.1294 123.912 36.2824 117.606 36.2824H117.23ZM113.324 21.6H121.089V20.9882C121.089 16.7529 119.771 15.4353 117.465 15.4353H117.136C114.83 15.4353 113.371 16.9412 113.324 21.6ZM135.35 36.2824C130.55 36.2824 128.056 32.9412 128.056 25.3647V22.5882C128.056 15.0588 130.55 11.7176 135.35 11.7176H135.679C138.503 11.7176 139.868 12.6118 141.374 14.7294V2.58823H146.691V36H141.609V32.9882C140.009 35.3412 138.597 36.2824 135.726 36.2824H135.35ZM133.515 25.3647C133.515 30.6824 134.785 32.4235 137.374 32.4235H137.703C140.244 32.4235 141.562 30.6824 141.562 25.3647V22.5882C141.562 17.3176 140.244 15.5765 137.703 15.5765H137.374C134.785 15.5765 133.515 17.3176 133.515 22.5882V25.3647ZM167.605 36.2824C164.734 36.2824 163.369 35.3412 161.722 32.9882V36H156.687V2.58823H161.958V14.7294C163.464 12.6118 164.875 11.7176 167.652 11.7176H168.028C172.828 11.7176 175.322 15.0588 175.322 22.5882V25.3647C175.322 32.9412 172.828 36.2824 167.981 36.2824H167.605ZM161.769 25.3647C161.769 30.6824 163.087 32.4235 165.581 32.4235H165.958C168.546 32.4235 169.817 30.6824 169.817 25.3647V22.5882C169.817 17.3176 168.546 15.5765 165.958 15.5765H165.581C163.087 15.5765 161.769 17.3176 161.769 22.5882V25.3647ZM177.186 44.2353V40.1412H179.728C181.045 40.1412 181.657 39.8118 181.986 38.6353L182.645 36.0941L175.492 12H180.998L185.469 29.5529L189.986 12H195.445L187.022 39.9059C185.939 43.2471 184.528 44.2353 181.233 44.2353H177.186Z" fill="black"/>
<path d="M232.995 31.6295C231.794 30.5377 229.959 30.5377 228.758 31.6295L226.565 33.6223C223.953 35.9968 219.964 35.9968 217.351 33.6223L215.159 31.6295C213.957 30.5378 212.123 30.5378 210.922 31.6295L208.121 34.1758C208.035 34.2534 208.033 34.3868 208.116 34.4663C211.714 37.8946 216.589 40 221.957 40C227.325 40 232.201 37.8939 235.799 34.4646C235.882 34.3851 235.88 34.2517 235.795 34.1742L232.995 31.6295ZM221.957 0C211.524 0 202.954 7.95324 202.002 18.1149C201.985 18.2941 202.196 18.3984 202.329 18.2776L203.06 17.6163C205.673 15.2509 209.655 15.2549 212.263 17.6257L214.463 19.6249C215.664 20.7167 217.498 20.7167 218.699 19.6249L220.888 17.6361C223.503 15.2593 227.497 15.2618 230.108 17.642L233.65 20.8692C233.895 21.0924 233.912 21.4719 233.689 21.7168L232.847 22.6408L232.005 23.5648C231.782 23.8096 231.402 23.8273 231.158 23.6042L227.616 20.3769C226.415 19.2825 224.579 19.2813 223.376 20.3742L221.188 22.363C218.576 24.7375 214.587 24.7375 211.974 22.363L209.775 20.3638C208.575 19.2737 206.744 19.2719 205.543 20.3595L202.281 23.3119C202.23 23.3578 202.207 23.4265 202.218 23.4938C202.724 26.3585 203.841 29.0129 205.43 31.3183C205.498 31.4173 205.638 31.4326 205.726 31.3517L208.433 28.8914C211.046 26.517 215.035 26.517 217.647 28.8914L219.84 30.8842C221.041 31.976 222.876 31.976 224.077 30.8842L226.269 28.8914C228.882 26.5169 232.871 26.5169 235.483 28.8914L238.188 31.3498C238.277 31.4306 238.417 31.4154 238.485 31.3164C240.702 28.0982 242 24.2004 242 20C242 15.6643 240.617 11.651 238.268 8.37487C238.235 8.32873 238.184 8.29876 238.127 8.2944C237.289 8.22988 236.43 8.49951 235.766 9.10373L233.577 11.0926C230.965 13.4671 226.976 13.4671 224.363 11.0926L222.164 9.0934C220.964 8.00327 219.133 8.00146 217.932 9.08908L214.341 12.3394C214.095 12.5618 213.716 12.5428 213.494 12.2972L211.816 10.4435C211.594 10.1979 211.612 9.81855 211.858 9.59621L215.449 6.34588C218.062 3.98045 222.044 3.9845 224.652 6.35531L226.852 8.35451C228.053 9.44632 229.888 9.4463 231.089 8.35451L233.277 6.36564C233.807 5.88349 234.395 5.49929 235.016 5.21297C235.15 5.15094 235.181 4.97017 235.069 4.87334C231.554 1.8371 226.97 1.25614e-06 221.957 0Z" fill="black"/>
<path d="M262 36.3765C254.235 36.3765 251.224 32.6118 251.224 26.4941V25.7412H256.776V26.4941C256.776 29.7882 258.141 31.9059 262.047 31.9059H262.376C265.482 31.9059 267.129 30.1176 267.129 27.3412V27.1059C267.129 24.7059 265.859 23.0118 263.129 22.1176L258.894 20.7529C254.518 19.3412 251.976 16.1882 251.976 11.3412V11.1059C251.976 5.50588 255.741 2.21176 262 2.21176H262.376C268.635 2.21176 272.259 5.50588 272.259 11.5294V12.0941H266.753V11.5294C266.753 8.61176 265.388 6.68235 262.424 6.68235H262C259.035 6.68235 257.529 8.51764 257.529 11.0118V11.2471C257.529 13.5059 258.753 15.2471 261.529 16.1412L265.859 17.5529C270.376 19.0118 272.729 21.8824 272.729 26.7765V27.0118C272.729 33.0824 268.918 36.3765 262.376 36.3765H262ZM283.539 36.2824C277.468 36.2824 274.268 32.9882 274.268 25.3647V22.6353C274.268 15.0118 277.468 11.7176 283.444 11.7176H283.821C289.797 11.7176 292.621 14.8235 292.621 22.0706C292.621 22.8235 292.621 24.0941 292.574 25.3647H279.633V25.7412C279.633 30.7765 280.903 32.5176 283.539 32.5176H283.868C286.456 32.5176 287.209 31.0118 287.209 28.9412V28.5176H292.386V28.8941C292.386 33.1294 290.221 36.2824 283.915 36.2824H283.539ZM279.633 21.6H287.397V20.9882C287.397 16.7529 286.08 15.4353 283.774 15.4353H283.444C281.139 15.4353 279.68 16.9412 279.633 21.6ZM295.259 36V12H300.529V36H295.259ZM295.259 8.42353V3.24705H300.529V8.42353H295.259Z" fill="black"/>
</svg>
