<svg width="1435" height="535" viewBox="0 0 1435 535" fill="none" xmlns="http://www.w3.org/2000/svg">
<path fill-rule="evenodd" clip-rule="evenodd" d="M266.012 534.324C345.239 534.324 416.418 499.892 465.377 445.186C442.603 425.407 408.28 424.206 384.034 443.755L379.402 447.49C335.007 483.284 270.32 477.998 232.336 435.472C211.619 412.279 176.14 409.911 152.52 430.145L99.1133 475.895C144.855 512.46 202.878 534.324 266.012 534.324ZM352.701 404.955C394.986 370.862 454.42 372.084 495.089 405.013C519.397 364.767 533.383 317.597 533.383 267.162C533.383 211.12 516.115 159.11 486.604 116.151C467.58 112.103 446.96 116.831 431.307 130.691L426.852 134.636C384.158 172.44 319.295 170.142 279.388 129.414C257.622 107.201 222.07 106.471 199.41 127.773L137.261 186.196L103.072 149.884L165.222 91.4612C207.669 51.5576 274.266 52.924 315.039 94.535C336.343 116.277 370.969 117.504 393.76 97.3227L398.215 93.3779C412.05 81.1279 428.057 72.8695 444.815 68.5261C397.446 25.9257 334.759 0 266.012 0C130.284 0 18.1773 101.056 0.938963 231.975C42.1649 212.207 93.0169 219.814 126.631 254.209C147.852 275.922 182.02 278.214 205.955 259.53L240.704 232.404C284.374 198.313 346.109 199.963 387.893 236.339L455.545 295.234L422.769 332.824L355.117 273.929C331.358 253.245 296.254 252.306 271.421 271.692L236.673 298.817C192.698 333.146 129.921 328.935 90.9332 289.041C68.262 265.843 31.183 265.033 7.51958 287.22L0 294.27C5.62745 350.071 28.4393 400.803 63.0671 441.104L120.044 392.295C164.29 354.392 230.753 358.827 269.561 402.275C289.838 424.976 324.37 427.798 348.069 408.69L352.701 404.955Z" fill="#9E1F19"/>
<path d="M725.969 352.849C725.969 408.75 769.884 445.417 839.064 445.417C908.846 445.417 956.968 409.953 956.968 354.05C956.968 310.17 932.309 287.329 882.377 275.307L830.643 262.683C801.767 255.471 787.329 242.246 787.329 222.41C787.329 195.36 807.181 179.732 842.674 179.732C876.963 179.732 896.816 198.366 898.018 227.82H952.164C950.961 171.917 908.846 135.852 844.478 135.852C779.509 135.852 733.79 170.114 733.79 224.213C733.79 267.492 758.454 293.34 810.791 305.962L862.526 317.985C893.206 325.799 902.831 337.821 902.831 357.657C902.831 384.707 879.971 400.937 840.267 400.937C802.97 400.937 780.11 382.903 780.11 352.849H725.969Z" fill="#ECEDEE"/>
<path d="M1158.64 445.417C1231.43 445.417 1280.76 409.953 1295.2 346.838H1242.26C1232.64 380.499 1203.77 398.532 1159.84 398.532C1103.9 398.532 1071.42 364.269 1067.2 302.356L1294.6 301.755V280.716C1294.6 193.557 1239.86 135.852 1156.24 135.852C1070.81 135.852 1012.46 199.568 1012.46 291.536C1012.46 382.903 1072.02 445.417 1158.64 445.417ZM1156.24 183.338C1206.17 183.338 1238.05 215.798 1238.05 264.487H1068.41C1075.63 212.793 1106.91 183.338 1156.24 183.338Z" fill="#ECEDEE"/>
<path d="M1397.47 74.5364C1417.92 74.5364 1434.76 57.7056 1434.76 37.2682C1434.76 16.2297 1417.92 0 1397.47 0C1377.01 0 1360.16 16.2297 1360.16 37.2682C1360.16 57.7056 1377.01 74.5364 1397.47 74.5364ZM1369.79 438.202H1426.34V144.264H1369.79V438.202Z" fill="#ECEDEE"/>
</svg>
